<svg viewBox="0 0 127 40" fill="none" xmlns="http://www.w3.org/2000/svg"><path fill-rule="evenodd" clip-rule="evenodd" d="M2.3 0H0v35.4h28.4v2.9h2.3V33H2.3V2.3h61.8v5.1h2.4V0H2.3z" fill="#F57123"/><path fill-rule="evenodd" clip-rule="evenodd" d="M64.1 33H35.8v5.3H38v-2.9h28.4V28H64v5z" fill="#F57123"/><path class="rentalit" d="M7.2 23.6h2.4v-4c0-1.5.5-2.2 1.7-2.2h1.5v-2.2h-1c-1 0-1.8.5-2.3 1.4v-1.4H7.2v8.4zm13.9.2c1.8 0 3.2-1 3.9-2.3l-1.8-1c-.4.7-1.2 1.3-2.1 1.3-1.2 0-2-.7-2.2-1.6h6.5v-.8c0-2.5-1.8-4.4-4.4-4.4-2.4 0-4.4 2-4.4 4.4 0 2.4 1.8 4.4 4.5 4.4zm0-6.8c.9 0 1.6.5 2 1.4h-4.2c.4-.8 1.1-1.4 2.1-1.4zm8.6 6.6H32V19c0-1.4.7-2 1.6-2 1 0 1.5.6 1.5 1.8v4.8h2.4v-5.1c0-2.2-1.2-3.5-3.2-3.5a3 3 0 0 0-2.3 1.1v-1h-2.3v8.5zm11.7-6.4H43V20c0 2.8.9 3.7 3.5 3.7h.4v-2.2c-1.4 0-1.6-.2-1.6-1.5v-2.7h1.6v-2h-1.6v-3.3l-2.3 1.3v2h-1.5v2zm13.3 6.6c1.1 0 2-.5 2.6-1.1v1h2.3v-8.5h-2.3v.8c-.6-.6-1.5-1-2.6-1-1.9 0-4 1.4-4 4.4 0 3 2.2 4.4 4 4.4zm.5-2.1c-1.3 0-2.3-1-2.3-2.3s1-2.3 2.3-2.3c1.2 0 2.1 1 2.1 2.3 0 1.2-.9 2.3-2.1 2.3zm9 2h2.2V11.2h-2.3v12.3z" fill="#ffffff"/><path d="M71 23.6h2.4v-8.4H71v8.4zm0-9.3h2.4V12H71v2.3zm6.8 3h1.4v2.6c0 2.8.9 3.7 3.6 3.7h.3v-2.2c-1.4 0-1.6-.2-1.6-1.5v-2.7h1.6v-2h-1.6v-3.3l-2.3 1.3v2h-1.4v2z" fill="#F57123"/><path class="pro" d="M95.4 12.8h-5.2V24h3v-3.9h2.2c2.8 0 4.3-1.3 4.3-3.6 0-2.4-1.5-3.7-4.3-3.7zm-.5 5.2h-1.7v-3h1.7c1.3 0 1.9.5 1.9 1.5s-.6 1.5-1.9 1.5zm14.7 6h3.2l-2.8-4.4c1.4-.5 2.2-1.6 2.2-3.3 0-2.3-1.5-3.5-4.2-3.5h-5.4V24h2.9v-4.1h1.7l2.4 4.1zm-4.1-9h2c1.2 0 1.7.4 1.7 1.4 0 1-.5 1.4-1.7 1.4h-2V15zm14.7-2.4c-3.4 0-5.5 2.2-5.5 5.8 0 3.6 2.1 5.8 5.5 5.8s5.5-2.2 5.5-5.8c0-3.6-2-5.8-5.5-5.8zm0 2.3c1.6 0 2.5 1.2 2.5 3.5s-.9 3.5-2.5 3.5-2.5-1.2-2.5-3.5.9-3.5 2.5-3.5z" fill="#d9d9d9"/></svg>